<?xml version="1.0" encoding="UTF-8"?>
<svg version="1.1" xmlns="http://www.w3.org/2000/svg" width="410" height="123">
<path d="M0 0 C135.3 0 270.6 0 410 0 C410 40.59 410 81.18 410 123 C274.7 123 139.4 123 0 123 C0 82.41 0 41.82 0 0 Z " fill="#FBFBFB" transform="translate(0,0)"/>
<path d="M0 0 C135.3 0 270.6 0 410 0 C410 40.59 410 81.18 410 123 C274.7 123 139.4 123 0 123 C0 82.41 0 41.82 0 0 Z M15 4 C15.33 4.66 15.66 5.32 16 6 C16.08057799 7.5082402 16.09736032 9.0201101 16.08229065 10.53042603 C16.07525116 11.48397476 16.06821167 12.4375235 16.06095886 13.41996765 C16.04801285 14.46941055 16.03506683 15.51885345 16.02172852 16.60009766 C16.01212097 17.70254318 16.00251343 18.80498871 15.99261475 19.94084167 C15.95953365 23.59864508 15.91923602 27.25633241 15.87890625 30.9140625 C15.85461404 33.44468776 15.83077004 35.97531737 15.80735779 38.50595093 C15.75086567 44.49476809 15.68984019 50.4835226 15.62663645 56.47227132 C15.55494011 63.28956225 15.48900738 70.10690508 15.42356598 76.92425847 C15.28880414 90.94957297 15.14678085 104.97480651 15 119 C63.3927312 119.0228642 111.78546185 119.04049712 160.17819738 119.05106533 C165.88499292 119.05231611 171.59178846 119.05361043 177.29858398 119.05493164 C178.43475529 119.05519395 179.57092659 119.05545626 180.74152733 119.05572652 C199.16398728 119.06008369 217.58644413 119.0679715 236.00890224 119.0771528 C254.89706415 119.08648802 273.78522442 119.09205533 292.67338854 119.09408849 C304.33837987 119.095464 316.00336243 119.09981604 327.66835106 119.10791647 C335.65590812 119.11318231 343.64346061 119.11480467 351.63101929 119.11350138 C356.24673154 119.11285774 360.86242842 119.11387835 365.47813797 119.11920547 C369.69654592 119.12403881 373.914928 119.12433909 378.13333709 119.12089889 C379.66631969 119.12047314 381.19930385 119.12176943 382.73228335 119.12488318 C384.80233848 119.12884622 386.87229795 119.126764 388.94235134 119.12304783 C390.09632142 119.12342755 391.25029151 119.12380727 392.43923038 119.1241985 C394.93328119 119.29072609 394.93328119 119.29072609 396 118 C396.09781225 116.53483696 396.12631748 115.06498178 396.12698364 113.59655762 C396.13121338 112.17046425 396.13121338 112.17046425 396.13552856 110.71556091 C396.13350433 109.66409378 396.1314801 108.61262665 396.12939453 107.52929688 C396.13114685 106.42860367 396.13289917 105.32791046 396.13470459 104.19386292 C396.13912568 100.53547616 396.13618421 96.87713729 396.1328125 93.21875 C396.13348547 90.68908682 396.13445543 88.1594237 396.13571167 85.62976074 C396.13718899 80.32006151 396.13512758 75.01037963 396.13037109 69.70068359 C396.12492851 63.55394042 396.12669118 57.40723041 396.1321975 51.26048803 C396.1372744 45.35782436 396.13674706 39.45517104 396.13381577 33.55250549 C396.13314624 31.03577164 396.1339758 28.51903695 396.13629532 26.00230408 C396.13882033 22.49174725 396.13498338 18.9812551 396.12939453 15.47070312 C396.13243088 13.89350243 396.13243088 13.89350243 396.13552856 12.28443909 C396.13270874 11.33371017 396.12988892 10.38298126 396.12698364 9.40344238 C396.12660662 8.57236214 396.12622959 7.74128189 396.12584114 6.8850174 C396.2069457 4.98746713 396.2069457 4.98746713 395 4 C392.98273845 3.90216189 390.96198398 3.8762876 388.94235134 3.87695217 C388.2996155 3.87579833 387.65687965 3.87464448 386.99466696 3.87345567 C384.81424473 3.87078275 382.63389453 3.87531666 380.45347595 3.87974548 C378.88518858 3.87930992 377.31690128 3.87843529 375.74861437 3.87715632 C371.41826647 3.87490845 367.08794306 3.8789366 362.75759828 3.88393438 C358.09567727 3.88823453 353.43375776 3.88679277 348.77183533 3.8860321 C340.68782662 3.88550659 332.60382595 3.88865623 324.51981926 3.89426994 C312.83156065 3.90238127 301.14330594 3.90499978 289.45504481 3.90625793 C270.49370931 3.90844903 251.5323781 3.91511069 232.57104492 3.92456055 C214.1468915 3.93373317 195.72273923 3.94081473 177.29858398 3.94506836 C176.16378839 3.94533108 175.02899279 3.94559381 173.85980945 3.94586449 C168.16713302 3.94716949 162.47445657 3.9484332 156.78178012 3.94967639 C109.52118378 3.96005081 62.2605921 3.9776707 15 4 Z " fill="#FEFEFE" transform="translate(0,0)"/>
<path d="M0 0 C14.2410423 6.02121262 24.46306371 16.17328038 30.7890625 30.31640625 C31.69665547 33.18770037 31.95081982 35.80966139 31.9765625 38.81640625 C31.99074219 39.56921875 32.00492188 40.32203125 32.01953125 41.09765625 C31.75882085 43.60754617 31.11701841 45.18053311 29.7890625 47.31640625 C25.46824735 49.9350821 20.67217205 50.13517537 15.7890625 49.31640625 C1.60187156 44.28779275 -9.01520043 33.46196901 -15.44921875 20.078125 C-17.55696409 15.20328835 -17.98017114 10.55890075 -17.2109375 5.31640625 C-12.54363293 -0.70196016 -7.27354378 -2.24888721 0 0 Z " fill="#B8B9BC" transform="translate(67.2109375,34.68359375)"/>
<path d="M0 0 C0.66 0.33 1.32 0.66 2 1 C1.01 2.485 1.01 2.485 0 4 C-1.95423866 18.14420276 1.8052017 28.72237523 10.25390625 40.01171875 C17.86517378 48.86726306 29.10514582 58.11956349 41 60 C43.59373914 60.06898242 46.15810197 60.09434752 48.75 60.0625 C49.44738281 60.05798828 50.14476562 60.05347656 50.86328125 60.04882812 C52.57555803 60.0371002 54.28779033 60.01916653 56 60 C48.6784359 67.88373173 38.6688507 72.45575898 27.97265625 73.21484375 C15.78113066 73.57048919 7.45662162 70.71461238 -2 63 C-3.35281163 61.68643376 -4.69228621 60.3584698 -6 59 C-5.67 58.34 -5.34 57.68 -5 57 C-4.30777344 57.67095703 -4.30777344 57.67095703 -3.6015625 58.35546875 C5.26135003 66.5703027 13.79591407 70.29338617 25.8046875 70.234375 C30.46438242 69.89258809 34.6386858 68.62101944 39 67 C38.16597656 66.76925781 37.33195312 66.53851563 36.47265625 66.30078125 C20.04456025 61.53983247 6.94801215 52.95393413 -2 38 C-6.5783888 29.49401581 -9.33981976 20.28673904 -7.5546875 10.578125 C-6.03413799 5.92908858 -3.59908903 3.11272565 0 0 Z " fill="#0C0C0C" transform="translate(45,30)"/>
<path d="M0 0 C3.125 1.3125 3.125 1.3125 5 4 C5.83858576 8.97863078 6.11583043 13.38396973 3.1875 17.625 C-0.87099374 20.17605321 -4.28403005 20.40654913 -9 20 C-12.38939556 17.86320715 -13.72582557 16.8225233 -15 13 C-15.41296625 5.42895204 -15.41296625 5.42895204 -13 2 C-8.72644655 -0.84903563 -5.01012385 -0.59834282 0 0 Z " fill="#838487" transform="translate(165,40)"/>
<path d="M0 0 C3.65050264 0.88318612 4.94055216 2.348519 6.9375 5.46875 C7.77477309 10.05522828 7.82116876 13.9591492 5.4375 18.03125 C1.99082928 20.01308566 -1.07816928 20.8165884 -5.0625 20.46875 C-8.54381633 18.39477432 -9.77736282 17.32416154 -11.0625 13.46875 C-11.73855634 6.48283451 -11.73855634 6.48283451 -9.0625 2.46875 C-5.73476822 0.25026215 -3.92274591 -0.29717772 0 0 Z " fill="#F5F5F5" transform="translate(334.0625,39.53125)"/>
<path d="M0 0 C7.92 0 15.84 0 24 0 C24.66 1.65 25.32 3.3 26 5 C24.02 5.33 22.04 5.66 20 6 C20.5775 6.91523437 21.155 7.83046875 21.75 8.7734375 C22.5002341 9.97381205 23.25022133 11.17434092 24 12.375 C24.3815625 12.97828125 24.763125 13.5815625 25.15625 14.203125 C28 18.7734375 28 18.7734375 28 21 C24.9375 21.625 24.9375 21.625 21 21 C17.47497582 17.23088046 14.91565146 12.80593862 12.58984375 8.21875 C11.2041672 5.81470169 11.2041672 5.81470169 8.73828125 5.29296875 C7.93777344 5.25816406 7.13726562 5.22335938 6.3125 5.1875 C5.50425781 5.13980469 4.69601563 5.09210937 3.86328125 5.04296875 C3.24839844 5.02878906 2.63351563 5.01460937 2 5 C1.34 3.35 0.68 1.7 0 0 Z " fill="#3F3F40" transform="translate(57,52)"/>
<path d="M0 0 C0.86625 -0.01675781 1.7325 -0.03351562 2.625 -0.05078125 C5.43490048 0.37902261 6.32780615 1.05173793 8 3.3125 C8 3.9725 8 4.6325 8 5.3125 C4.4780279 5.39254482 1.38018531 5.35255702 -2 4.3125 C0.01547461 6.5755684 0.01547461 6.5755684 3.5 7.8125 C7 9.3125 7 9.3125 9 11.3125 C8.9375 14.25 8.9375 14.25 8 17.3125 C5.16457047 19.81434959 3.25398461 20.28075192 -0.5 20.75 C-4.57358744 20.24080157 -6.20478528 19.27712167 -9 16.3125 C-9 15.3225 -9 14.3325 -9 13.3125 C-7.02 13.3125 -5.04 13.3125 -3 13.3125 C-2.67 13.9725 -2.34 14.6325 -2 15.3125 C-0.68 15.3125 0.64 15.3125 2 15.3125 C2 14.6525 2 13.9925 2 13.3125 C1.36191406 13.03535156 0.72382813 12.75820313 0.06640625 12.47265625 C-0.75988281 12.11042969 -1.58617187 11.74820313 -2.4375 11.375 C-3.26121094 11.01535156 -4.08492187 10.65570313 -4.93359375 10.28515625 C-7 9.3125 -7 9.3125 -8 8.3125 C-8.25 5.375 -8.25 5.375 -8 2.3125 C-4.78169935 0.16696623 -3.73213493 0.01666132 0 0 Z " fill="#818386" transform="translate(202,39.6875)"/>
<path d="M0 0 C0.86625 -0.01675781 1.7325 -0.03351562 2.625 -0.05078125 C5.43490048 0.37902261 6.32780615 1.05173793 8 3.3125 C8 3.9725 8 4.6325 8 5.3125 C4.4780279 5.39254482 1.38018531 5.35255702 -2 4.3125 C0.01547461 6.5755684 0.01547461 6.5755684 3.5 7.8125 C7 9.3125 7 9.3125 9 11.3125 C8.92278597 14.94155955 8.63957949 16.69290737 6 19.25 C1.89112315 20.70522722 -1.81870986 20.54966075 -6 19.3125 C-7.7734375 17.9453125 -7.7734375 17.9453125 -9 16.3125 C-9 15.3225 -9 14.3325 -9 13.3125 C-7.02 13.3125 -5.04 13.3125 -3 13.3125 C-2.67 13.9725 -2.34 14.6325 -2 15.3125 C-0.68 15.3125 0.64 15.3125 2 15.3125 C2 14.6525 2 13.9925 2 13.3125 C1.36191406 13.03535156 0.72382813 12.75820313 0.06640625 12.47265625 C-0.75988281 12.11042969 -1.58617187 11.74820313 -2.4375 11.375 C-3.26121094 11.01535156 -4.08492187 10.65570313 -4.93359375 10.28515625 C-7 9.3125 -7 9.3125 -8 8.3125 C-8.25 5.375 -8.25 5.375 -8 2.3125 C-4.78169935 0.16696623 -3.73213493 0.01666132 0 0 Z " fill="#818385" transform="translate(182,39.6875)"/>
<path d="M0 0 C5.94 0 11.88 0 18 0 C18 1.65 18 3.3 18 5 C15.69 5 13.38 5 11 5 C11 9.62 11 14.24 11 19 C9.35 19 7.7 19 6 19 C6 14.05 6 9.1 6 4 C4.02 4 2.04 4 0 4 C0 2.68 0 1.36 0 0 Z " fill="#808284" transform="translate(131,40)"/>
<path d="M0 0 C0.66 0.33 1.32 0.66 2 1 C1.01 2.485 1.01 2.485 0 4 C-1.56308738 16.33870745 0.90400163 25.31645183 7 36 C6.01 36 5.02 36 4 36 C3.18501438 34.3970947 2.37310073 32.79262722 1.5625 31.1875 C1.11003906 30.29417969 0.65757813 29.40085937 0.19140625 28.48046875 C-1 26 -1 26 -2 23 C-3.32 23 -4.64 23 -6 23 C-6.33 23.99 -6.66 24.98 -7 26 C-8.76726406 12.03222624 -8.76726406 12.03222624 -5 5 C-3.43636752 3.10693753 -1.86802366 1.61558803 0 0 Z " fill="#0D0D0D" transform="translate(45,30)"/>
<path d="M0 0 C5.04574923 1.26143731 5.53470277 2.76327939 8.25 7.0625 C8.95640625 8.16722656 9.6628125 9.27195312 10.390625 10.41015625 C10.92171875 11.26480469 11.4528125 12.11945312 12 13 C12.33 8.71 12.66 4.42 13 0 C13.99 0 14.98 0 16 0 C16 6.6 16 13.2 16 20 C10.89381648 18.72345412 9.79978117 16.18575104 7.25 11.9375 C6.83878906 11.27427734 6.42757813 10.61105469 6.00390625 9.92773438 C4.99175664 8.29181814 3.99442493 6.64675068 3 5 C2.67 9.62 2.34 14.24 2 19 C1.34 19 0.68 19 0 19 C0 12.73 0 6.46 0 0 Z " fill="#222121" transform="translate(345,40)"/>
<path d="M0 0 C1.24330078 0.60328125 1.24330078 0.60328125 2.51171875 1.21875 C12.5921548 6.64319989 18.33609417 15.28422521 22 26 C22.596987 29.05568899 22.84650422 31.87891921 23 35 C21.23829106 31.7077566 20.04486934 28.33295439 18.8125 24.8125 C14.99877558 14.89459276 9.54013435 7.89559526 0 3 C-7.70118363 -0.343935 -16.91423205 -1.69525598 -25 1 C-28.1875 0.0625 -28.1875 0.0625 -31 -1 C-31 -1.33 -31 -1.66 -31 -2 C-21.3883137 -4.34615965 -8.96738924 -4.52655977 0 0 Z " fill="#191919" transform="translate(90,23)"/>
<path d="M0 0 C0.50789063 0.38671875 1.01578125 0.7734375 1.5390625 1.171875 C3.68334527 2.79414137 5.84002294 4.39870553 8 6 C9.4540625 7.0828125 9.4540625 7.0828125 10.9375 8.1875 C19.38873363 13.18925052 28.15873666 14.39675793 37.8125 12.42578125 C41.46638437 11.39812627 44.55011847 10.26992892 47.8125 8.3125 C50.40088936 6.75946638 52.03286282 6.74567396 55 7 C54.67 7.99 54.34 8.98 54 10 C51.19921875 11.3515625 51.19921875 11.3515625 47.6875 12.625 C46.53636719 13.05039063 45.38523438 13.47578125 44.19921875 13.9140625 C34.3917012 17.24310997 23.53310681 17.40463417 14 13 C8.83826469 9.90744078 4.03888141 6.49071974 0 2 C0 1.34 0 0.68 0 0 Z " fill="#131313" transform="translate(39,87)"/>
<path d="M0 0 C2.89465573 0.76807652 4.72205749 2.18573567 6.41796875 4.65625 C7.86308611 8.37118519 7.35601403 11.84227526 6.1640625 15.57421875 C3.56883641 18.92289758 1.55850635 20.3882929 -2.6484375 20.94921875 C-5.8359375 20.57421875 -5.8359375 20.57421875 -8.6484375 18.63671875 C-11.49072553 14.65751551 -12.38309217 11.44731499 -11.8359375 6.57421875 C-9.67767299 1.06614788 -5.56801332 -0.41899766 0 0 Z M-7.52734375 3.8203125 C-9.60371112 6.60326458 -9.3114715 9.04026691 -9.1796875 12.40625 C-8.94332738 14.76271102 -8.94332738 14.76271102 -7.2734375 17.19921875 C-3.77326957 19.17367245 -1.63356837 18.62911621 2.1640625 17.57421875 C4.22926882 14.47640927 4.45883274 13.62017065 4.4765625 10.07421875 C4.49332031 9.30078125 4.51007813 8.52734375 4.52734375 7.73046875 C4.07367423 5.03772065 3.35169592 4.17345421 1.1640625 2.57421875 C-3.45503996 1.97952398 -3.45503996 1.97952398 -7.52734375 3.8203125 Z " fill="#1F1E1E" transform="translate(252.8359375,39.42578125)"/>
<path d="M0 0 C2 1.375 2 1.375 3 3 C3 3.66 3 4.32 3 5 C2.46375 4.67 1.9275 4.34 1.375 4 C-1.5391061 2.77300796 -3.86867708 2.85766714 -7 3 C-7.33 4.32 -7.66 5.64 -8 7 C-7.38511719 7.10957031 -6.77023437 7.21914063 -6.13671875 7.33203125 C-5.32847656 7.49058594 -4.52023437 7.64914063 -3.6875 7.8125 C-2.88699219 7.96332031 -2.08648437 8.11414062 -1.26171875 8.26953125 C1.28521566 9.09211628 2.40863479 9.86095715 4 12 C3.9375 15.0625 3.9375 15.0625 3 18 C0.72646449 19.85251041 -1.03706337 20.00552008 -3.9375 20.4375 C-8.04164742 19.85119323 -9.43868501 18.16397734 -12 15 C-12 14.34 -12 13.68 -12 13 C-11.01 13 -10.02 13 -9 13 C-8.67 13.99 -8.34 14.98 -8 16 C-5.69 16.33 -3.38 16.66 -1 17 C-0.67 15.35 -0.34 13.7 0 12 C-0.62648438 11.80664062 -1.25296875 11.61328125 -1.8984375 11.4140625 C-2.71570313 11.15367188 -3.53296875 10.89328125 -4.375 10.625 C-5.59316406 10.24214844 -5.59316406 10.24214844 -6.8359375 9.8515625 C-9 9 -9 9 -11 7 C-10.75 3.9375 -10.75 3.9375 -10 1 C-6.82417369 -0.58791315 -3.45838847 -0.41019741 0 0 Z " fill="#111111" transform="translate(376,40)"/>
<path d="M0 0 C1.19109375 0.00773437 1.19109375 0.00773437 2.40625 0.015625 C3.2003125 0.01046875 3.994375 0.0053125 4.8125 0 C6.90625 0.265625 6.90625 0.265625 8.90625 2.265625 C8.90625 3.255625 8.90625 4.245625 8.90625 5.265625 C8.24625 5.265625 7.58625 5.265625 6.90625 5.265625 C6.57625 4.605625 6.24625 3.945625 5.90625 3.265625 C3.59625 3.265625 1.28625 3.265625 -1.09375 3.265625 C-1.42375 4.585625 -1.75375 5.905625 -2.09375 7.265625 C-1.47886719 7.37519531 -0.86398438 7.48476563 -0.23046875 7.59765625 C0.57777344 7.75621094 1.38601562 7.91476563 2.21875 8.078125 C3.01925781 8.22894531 3.81976563 8.37976562 4.64453125 8.53515625 C7.19146566 9.35774128 8.31488479 10.12658215 9.90625 12.265625 C9.84375 15.328125 9.84375 15.328125 8.90625 18.265625 C6.57896892 20.1619281 4.89438451 20.26686099 1.90625 20.578125 C-1.44551143 20.22898318 -2.80941188 19.72568144 -5.09375 17.265625 C-5.09375 15.945625 -5.09375 14.625625 -5.09375 13.265625 C-4.43375 13.265625 -3.77375 13.265625 -3.09375 13.265625 C-1.46875 15.265625 -1.46875 15.265625 -0.09375 17.265625 C3.37125 16.770625 3.37125 16.770625 6.90625 16.265625 C6.75061087 14.29506658 6.75061087 14.29506658 5.90625 12.265625 C3.88993284 11.19911719 3.88993284 11.19911719 1.46875 10.640625 C-2.91494205 9.44443295 -2.91494205 9.44443295 -5.09375 7.265625 C-4.71646826 3.49280758 -4.25049811 0.5392423 0 0 Z " fill="#161515" transform="translate(228.09375,39.734375)"/>
<path d="M0 0 C3.65050264 0.88318612 4.94055216 2.348519 6.9375 5.46875 C7.77477309 10.05522828 7.82116876 13.9591492 5.4375 18.03125 C1.99082928 20.01308566 -1.07816928 20.8165884 -5.0625 20.46875 C-8.54381633 18.39477432 -9.77736282 17.32416154 -11.0625 13.46875 C-11.73855634 6.48283451 -11.73855634 6.48283451 -9.0625 2.46875 C-5.73476822 0.25026215 -3.92274591 -0.29717772 0 0 Z M-6.9375 3.84375 C-9.23462797 7.16182373 -9.53693748 9.4360314 -9.0625 13.46875 C-6.74697809 16.51200737 -5.25314408 18.178349 -1.5 19.09375 C1.12476615 18.61963271 1.12476615 18.61963271 3.25 16.40625 C5.34862491 12.75308812 5.46636081 10.62408496 4.9375 6.46875 C4.05420357 3.92916766 4.05420357 3.92916766 1.9375 2.46875 C-2.79465584 1.84589185 -2.79465584 1.84589185 -6.9375 3.84375 Z " fill="#111111" transform="translate(334.0625,39.53125)"/>
<path d="M0 0 C0.66 0 1.32 0 2 0 C2.07347656 1.46373047 2.07347656 1.46373047 2.1484375 2.95703125 C2.22320312 4.22933594 2.29796875 5.50164063 2.375 6.8125 C2.44460938 8.07707031 2.51421875 9.34164062 2.5859375 10.64453125 C2.76102939 14.12755234 2.76102939 14.12755234 5 17 C7.5 17.41666667 7.5 17.41666667 10 17 C12.84614024 14.15385976 12.45579076 11.19630858 12.625 7.375 C12.68300781 6.31539062 12.68300781 6.31539062 12.7421875 5.234375 C12.83647724 3.49001476 12.91932891 1.74504309 13 0 C13.66 0 14.32 0 15 0 C15.05394705 2.60444348 15.09364469 5.20776998 15.125 7.8125 C15.14175781 8.55048828 15.15851563 9.28847656 15.17578125 10.04882812 C15.21074628 13.91246426 15.19397555 15.70903668 13 19 C10.9765625 19.6875 10.9765625 19.6875 8.625 20 C7.85414063 20.12375 7.08328125 20.2475 6.2890625 20.375 C4 20 4 20 1.7265625 17.98828125 C-0.40628566 14.29681329 -0.45553387 11.31794024 -0.25 7.1875 C-0.23195313 6.49462891 -0.21390625 5.80175781 -0.1953125 5.08789062 C-0.14851064 3.39132336 -0.07677624 1.69547524 0 0 Z " fill="#050505" transform="translate(279,40)"/>
<path d="M0 0 C0.99 0 1.98 0 3 0 C3 5.61 3 11.22 3 17 C6.3 17 9.6 17 13 17 C13 17.99 13 18.98 13 20 C8.71 20 4.42 20 0 20 C0 13.4 0 6.8 0 0 Z " fill="#424141" transform="translate(263,40)"/>
<path d="M0 0 C0.99 0.33 1.98 0.66 3 1 C4.02734375 3.07421875 4.02734375 3.07421875 4.9375 5.6875 C6.52319928 9.95480656 8.3066746 13.34477268 11 17 C9.35 17.33 7.7 17.66 6 18 C5.03576974 16.60823368 4.07888398 15.2113777 3.125 13.8125 C2.59132813 13.03519531 2.05765625 12.25789063 1.5078125 11.45703125 C-0.65075902 7.93956626 -2 5.15636365 -2 1 C-1.34 0.67 -0.68 0.34 0 0 Z " fill="#ECECEC" transform="translate(41,52)"/>
<path d="M0 0 C0.52078125 0.26554687 1.0415625 0.53109375 1.578125 0.8046875 C4.61030108 2.30121311 7.67808137 3.71191743 10.75 5.125 C12.50570312 5.93324219 12.50570312 5.93324219 14.296875 6.7578125 C15.18890625 7.16773437 16.0809375 7.57765625 17 8 C16.67 9.32 16.34 10.64 16 12 C9.08488415 11.46806801 2.68537736 8.08698114 -2 3 C-1.34 2.01 -0.68 1.02 0 0 Z " fill="#EFEFEF" transform="translate(64,82)"/>
<path d="M0 0 C6.27 0 12.54 0 19 0 C14 5 14 5 10.25 5.25 C9.1775 5.1675 8.105 5.085 7 5 C6.67 5.33 6.34 5.66 6 6 C1.76685233 6.23961213 -1.36736489 6.32488647 -5 4 C-4.360625 3.71125 -3.72125 3.4225 -3.0625 3.125 C-0.84793921 2.17176549 -0.84793921 2.17176549 0 0 Z " fill="#030303" transform="translate(82,90)"/>
<path d="M0 0 C11.15177578 3.82970236 17.98619442 14.07273398 23.09375 24.16015625 C25.13625697 28.91654979 25.8213226 33.85873385 25 39 C24.34 39.66 23.68 40.32 23 41 C22.98582031 40.17757812 22.97164062 39.35515625 22.95703125 38.5078125 C22.41395597 25.79691534 17.68014581 17.20341702 9 8 C6.62858385 5.97472224 4.22016156 4.09555517 1.6875 2.27734375 C1.130625 1.85582031 0.57375 1.43429688 0 1 C0 0.67 0 0.34 0 0 Z " fill="#202020" transform="translate(74,39)"/>
<path d="M0 0 C4.55555556 0.55555556 4.55555556 0.55555556 6 2 C6.1328125 3.8125 6.1328125 3.8125 6.125 6 C6.12757813 6.721875 6.13015625 7.44375 6.1328125 8.1875 C6 10 6 10 5 11 C2.5625 11.1875 2.5625 11.1875 0 11 C-2 9 -2 9 -2.25 5.5 C-2 2 -2 2 0 0 Z " fill="#FBFBFB" transform="translate(158,44)"/>
<path d="M0 0 C5.28 0 10.56 0 16 0 C16 0.66 16 1.32 16 2 C13.69 2 11.38 2 9 2 C9 7.61 9 13.22 9 19 C8.34 19 7.68 19 7 19 C7 13.39 7 7.78 7 2 C4.69 2 2.38 2 0 2 C0 1.34 0 0.68 0 0 Z " fill="#030303" transform="translate(297,40)"/>
<path d="M0 0 C0.99 0 1.98 0 3 0 C3 6.6 3 13.2 3 20 C2.01 20 1.02 20 0 20 C0 13.4 0 6.8 0 0 Z " fill="#363636" transform="translate(316,40)"/>
<path d="M0 0 C3.85483779 -0.44823695 5.58169469 -0.27280781 8.875 1.875 C11.84015367 6.23552011 11.91682131 9.8709902 11 15 C9.4375 17.625 9.4375 17.625 7 19 C3.25 19.25 3.25 19.25 0 19 C0 18.67 0 18.34 0 18 C0.94875 17.731875 1.8975 17.46375 2.875 17.1875 C6.25267273 16.25013412 6.25267273 16.25013412 8 13 C8.55578749 7.98343174 8.55578749 7.98343174 6.25 3.6875 C4.21711228 2.16283421 2.33085643 0.99893847 0 0 Z " fill="#0A0A0A" transform="translate(330,40)"/>
<path d="M0 0 C2.97 0 5.94 0 9 0 C9 0.66 9 1.32 9 2 C8.01 2 7.02 2 6 2 C6 3.98 6 5.96 6 8 C5.67 8 5.34 8 5 8 C5 6.02 5 4.04 5 2 C4.01 2 3.02 2 2 2 C2 4.31 2 6.62 2 9 C1.34 9 0.68 9 0 9 C0 7.68 0 6.36 0 5 C-0.99 5 -1.98 5 -3 5 C-3 5.99 -3 6.98 -3 8 C-3.66 8 -4.32 8 -5 8 C-5 5.69 -5 3.38 -5 1 C-4.34 1 -3.68 1 -3 1 C-3 1.99 -3 2.98 -3 4 C-2.01 4 -1.02 4 0 4 C0 2.68 0 1.36 0 0 Z " fill="#747474" transform="translate(222,75)"/>
<path d="M0 0 C0.99 0 1.98 0 3 0 C3 2.31 3 4.62 3 7 C3.99 7.33 4.98 7.66 6 8 C4.35 8 2.7 8 1 8 C1 7.34 1 6.68 1 6 C0.01 6.66 -0.98 7.32 -2 8 C-4.625 8.1875 -4.625 8.1875 -7 8 C-8 7 -8 7 -8.0625 4.4375 C-8.041875 3.633125 -8.02125 2.82875 -8 2 C-7.01 2 -6.02 2 -5 2 C-5.33 3.32 -5.66 4.64 -6 6 C-5.01 6 -4.02 6 -3 6 C-3.33 4.35 -3.66 2.7 -4 1 C-2.68 1.33 -1.36 1.66 0 2 C0 1.34 0 0.68 0 0 Z " fill="#525253" transform="translate(295,75)"/>
<path d="M0 0 C1.65 0.33 3.3 0.66 5 1 C5.04254356 2.99954746 5.04080783 5.00041636 5 7 C4 8 4 8 1.4375 8.0625 C0.633125 8.041875 -0.17125 8.02125 -1 8 C-1.625 5.6875 -1.625 5.6875 -2 3 C-1.34 2.01 -0.68 1.02 0 0 Z " fill="#2C2C2C" transform="translate(270,75)"/>
<path d="M0 0 C0 2.31 0 4.62 0 7 C-2.375 7.125 -2.375 7.125 -5 7 C-5.66 6.34 -6.32 5.68 -7 5 C-6.75 2.4375 -6.75 2.4375 -6 0 C-3.50907189 -1.24546405 -2.58919267 -0.7767578 0 0 Z " fill="#787878" transform="translate(215,76)"/>
<path d="M0 0 C0.99 0 1.98 0 3 0 C3.33 0.99 3.66 1.98 4 3 C6.31 3.33 8.62 3.66 11 4 C11.99 2.68 12.98 1.36 14 0 C14 0.66 14 1.32 14 2 C14.66 2.33 15.32 2.66 16 3 C14 6 14 6 12.01171875 6.6875 C5.70850202 7.53499132 5.70850202 7.53499132 1.9375 4.6875 C0 2 0 2 0 0 Z " fill="#272727" transform="translate(364,53)"/>
<path d="M0 0 C2.64 0 5.28 0 8 0 C8 2.31 8 4.62 8 7 C9.32 7.33 10.64 7.66 12 8 C10.02 8 8.04 8 6 8 C6 6.02 6 4.04 6 2 C4.35 2 2.7 2 1 2 C1 2.66 1 3.32 1 4 C2.98 4.495 2.98 4.495 5 5 C3.68 5 2.36 5 1 5 C0.67 5.99 0.34 6.98 0 8 C0 5.36 0 2.72 0 0 Z " fill="#4E4E4E" transform="translate(235,75)"/>
<path d="M0 0 C-1 3 -1 3 -3.21484375 4.203125 C-4.11332031 4.54859375 -5.01179688 4.8940625 -5.9375 5.25 C-7.28134766 5.78367187 -7.28134766 5.78367187 -8.65234375 6.328125 C-11 7 -11 7 -13 6 C-13 5.34 -13 4.68 -13 4 C-4.738041 -0.59225513 -4.738041 -0.59225513 0 0 Z " fill="#1F1F1F" transform="translate(94,94)"/>
<path d="M0 0 C1.65 0 3.3 0 5 0 C5.93423645 3.01031744 6.04449911 3.86650268 5 7 C3.35 7 1.7 7 0 7 C0 4.69 0 2.38 0 0 Z " fill="#585858" transform="translate(190,76)"/>
<path d="M0 0 C3.05046193 1.38657361 4.30380369 3.11102379 6.0625 5.9375 C6.3125 9.25 6.3125 9.25 6.0625 11.9375 C5.0725 11.6075 4.0825 11.2775 3.0625 10.9375 C2.794375 9.803125 2.52625 8.66875 2.25 7.5 C1.6621875 5.7365625 1.6621875 5.7365625 1.0625 3.9375 C-1.94344421 2.40603622 -1.94344421 2.40603622 -4.9375 1.9375 C-1.9375 -0.0625 -1.9375 -0.0625 0 0 Z " fill="#212121" transform="translate(253.9375,40.0625)"/>
<path d="M0 0 C2 1.375 2 1.375 3 3 C3 3.66 3 4.32 3 5 C2.46375 4.67 1.9275 4.34 1.375 4 C-1.61641148 2.74045833 -3.78432784 2.65047042 -7 3 C-7.66 3.99 -8.32 4.98 -9 6 C-9.33 4.35 -9.66 2.7 -10 1 C-6.82417369 -0.58791315 -3.45838847 -0.41019741 0 0 Z " fill="#212121" transform="translate(376,40)"/>
<path d="M0 0 C1.98 0 3.96 0 6 0 C6 2.31 6 4.62 6 7 C4 7 4 7 2.375 5.5 C1.92125 5.005 1.4675 4.51 1 4 C0.67 4.99 0.34 5.98 0 7 C0 4.69 0 2.38 0 0 Z " fill="#444444" transform="translate(331,76)"/>
<path d="M0 0 C1.98 0 3.96 0 6 0 C6 2.31 6 4.62 6 7 C4 7 4 7 2.375 5.5 C1.92125 5.005 1.4675 4.51 1 4 C0.67 4.99 0.34 5.98 0 7 C0 4.69 0 2.38 0 0 Z " fill="#454545" transform="translate(304,76)"/>
<path d="M0 0 C6.10282919 2.92935801 9.27962423 6.38536697 13 12 C10 12 10 12 8.53515625 10.57421875 C8.04917969 9.95160156 7.56320313 9.32898437 7.0625 8.6875 C4.89452033 6.00590918 2.7902607 4.03903667 0 2 C0 1.34 0 0.68 0 0 Z " fill="#161616" transform="translate(93,25)"/>
<path d="M0 0 C0.66 0 1.32 0 2 0 C3.0625 1.8125 3.0625 1.8125 4 4 C3.67 4.99 3.34 5.98 3 7 C1.35 7 -0.3 7 -2 7 C-1.125 1.125 -1.125 1.125 0 0 Z " fill="#414141" transform="translate(325,76)"/>
<path d="M0 0 C0.66 0 1.32 0 2 0 C3.0625 1.8125 3.0625 1.8125 4 4 C3.67 4.99 3.34 5.98 3 7 C1.35 7 -0.3 7 -2 7 C-1.125 1.125 -1.125 1.125 0 0 Z " fill="#424141" transform="translate(181,76)"/>
<path d="M0 0 C1.98 0 3.96 0 6 0 C4.68 0.33 3.36 0.66 2 1 C2 1.66 2 2.32 2 3 C3.32 3.33 4.64 3.66 6 4 C4.68 4 3.36 4 2 4 C2 4.66 2 5.32 2 6 C3.32 6.33 4.64 6.66 6 7 C4.02 7 2.04 7 0 7 C0 4.69 0 2.38 0 0 Z " fill="#272727" transform="translate(346,76)"/>
<path d="M0 0 C1.65 0 3.3 0 5 0 C5 1.32 5 2.64 5 4 C4.01 4.495 4.01 4.495 3 5 C2.34 4.67 1.68 4.34 1 4 C0.67 4.99 0.34 5.98 0 7 C0 4.69 0 2.38 0 0 Z " fill="#474747" transform="translate(198,76)"/>
<path d="M0 0 C0.99 0.33 1.98 0.66 3 1 C3.33 2.65 3.66 4.3 4 6 C2.68 6.33 1.36 6.66 0 7 C-0.93423645 3.98968256 -1.04449911 3.13349732 0 0 Z " fill="#DBDBDB" transform="translate(289,75)"/>
<path d="M0 0 C0.66 0 1.32 0 2 0 C2.928125 1.175625 2.928125 1.175625 3.875 2.375 C5.88852174 4.86229156 7.08642859 5.85538266 10 7 C6.70985003 7.22432841 4.57722754 7.30380397 1.625 5.75 C0 4 0 4 0 0 Z " fill="#262525" transform="translate(223,53)"/>
<path d="M0 0 C0.928125 0.20625 1.85625 0.4125 2.8125 0.625 C2.8125 0.955 2.8125 1.285 2.8125 1.625 C1.141875 1.74875 1.141875 1.74875 -0.5625 1.875 C-4.24503944 2.20373787 -4.24503944 2.20373787 -5.625 4.6875 C-5.810625 5.326875 -5.99625 5.96625 -6.1875 6.625 C-6.8475 6.625 -7.5075 6.625 -8.1875 6.625 C-6.59083531 1.95782629 -5.4448172 -0.64056673 0 0 Z " fill="#292929" transform="translate(331.1875,40.375)"/>
<path d="M0 0 C-0.99 0.66 -1.98 1.32 -3 2 C-6.39120804 4.26264518 -6.39120804 4.26264518 -8 8 C-8.66 8 -9.32 8 -10 8 C-9.64505955 5.37344067 -9.27538036 3.42031739 -7.8125 1.1875 C-5.20638339 -0.51995571 -3.0400645 -0.20267097 0 0 Z " fill="#090909" transform="translate(252,40)"/>
<path d="M0 0 C0.66 0 1.32 0 2 0 C2 0.99 2 1.98 2 3 C2.99 3 3.98 3 5 3 C5.33 2.01 5.66 1.02 6 0 C6 2.31 6 4.62 6 7 C5.67 6.01 5.34 5.02 5 4 C4.01 4 3.02 4 2 4 C2 4.99 2 5.98 2 7 C1.34 7 0.68 7 0 7 C0 4.69 0 2.38 0 0 Z " fill="#232222" transform="translate(217,76)"/>
<path d="M0 0 C1.65 0 3.3 0 5 0 C5 1.32 5 2.64 5 4 C3.68 4 2.36 4 1 4 C0.67 4.99 0.34 5.98 0 7 C0 4.69 0 2.38 0 0 Z " fill="#434343" transform="translate(252,76)"/>
<path d="M0 0 C3 1 3 1 4.16796875 2.84765625 C4.50441406 3.57855469 4.84085938 4.30945312 5.1875 5.0625 C5.53167969 5.79597656 5.87585937 6.52945313 6.23046875 7.28515625 C6.48441406 7.85105469 6.73835938 8.41695312 7 9 C6.01 9 5.02 9 4 9 C0 2.25 0 2.25 0 0 Z " fill="#252424" transform="translate(45,57)"/>
<path d="M0 0 C2.97 0.99 5.94 1.98 9 3 C9 3.66 9 4.32 9 5 C3.5 5.36666667 3.5 5.36666667 1.125 3.625 C0 2 0 2 0 0 Z " fill="#141414" transform="translate(280,55)"/>
<path d="M0 0 C0.33 0 0.66 0 1 0 C1.25 2.75 1.25 2.75 1 6 C-1 8.375 -1 8.375 -3 10 C-3.66 9.67 -4.32 9.34 -5 9 C-4.319375 8.1646875 -4.319375 8.1646875 -3.625 7.3125 C-1.96266232 4.94686561 -0.97855457 2.70984342 0 0 Z " fill="#0A0A0A" transform="translate(258,49)"/>
<path d="M0 0 C2.6875 -0.3125 2.6875 -0.3125 6 0 C8.875 2.5 8.875 2.5 11 5 C10.01 5.33 9.02 5.66 8 6 C7.13375 5.071875 7.13375 5.071875 6.25 4.125 C4.19750179 2.18652947 2.56633418 1.09985751 0 0 Z " fill="#020202" transform="translate(330,40)"/>
<path d="M0 0 C1.32 0 2.64 0 4 0 C4 1.65 4 3.3 4 5 C2.68 5 1.36 5 0 5 C0 3.35 0 1.7 0 0 Z " fill="#F0F0F0" transform="translate(270,77)"/>
<path d="M0 0 C1.69752187 0.25245197 3.38471545 0.57645775 5.0625 0.9375 C5.98160156 1.13214844 6.90070313 1.32679687 7.84765625 1.52734375 C8.91306641 1.76130859 8.91306641 1.76130859 10 2 C10 2.33 10 2.66 10 3 C4.62694301 3.96891192 4.62694301 3.96891192 2 4 C0 2.5625 0 2.5625 -1 1 C-0.67 0.67 -0.34 0.34 0 0 Z " fill="#E9E9E9" transform="translate(200,43)"/>
<path d="M0 0 C1.69752187 0.25245197 3.38471545 0.57645775 5.0625 0.9375 C5.98160156 1.13214844 6.90070313 1.32679687 7.84765625 1.52734375 C8.91306641 1.76130859 8.91306641 1.76130859 10 2 C10 2.33 10 2.66 10 3 C4.62694301 3.96891192 4.62694301 3.96891192 2 4 C0 2.5625 0 2.5625 -1 1 C-0.67 0.67 -0.34 0.34 0 0 Z " fill="#E8E9E9" transform="translate(180,43)"/>
<path d="M0 0 C1.98 0.495 1.98 0.495 4 1 C3.67 2.32 3.34 3.64 3 5 C1.68 4.67 0.36 4.34 -1 4 C-0.67 2.68 -0.34 1.36 0 0 Z " fill="#EEEEEE" transform="translate(152,77)"/>
<path d="M0 0 C0 2.31 0 4.62 0 7 C-0.33 5.68 -0.66 4.36 -1 3 C-2.65 3 -4.3 3 -6 3 C-6 2.34 -6 1.68 -6 1 C-3.92446352 0.4465236 -2.15634036 0 0 0 Z " fill="#D4D4D4" transform="translate(354,76)"/>
<path d="M0 0 C4.43458973 1.3937282 6.87378374 3.60582235 10 7 C5.61308455 6.49381745 3.15608721 3.86917019 0 1 C0 0.67 0 0.34 0 0 Z " fill="#272727" transform="translate(74,39)"/>
<path d="M0 0 C3.375 -0.125 3.375 -0.125 7 0 C9 2 9 2 9 5 C8.34 5 7.68 5 7 5 C6 4 5 3 4 2 C1.90010348 0.82425289 1.90010348 0.82425289 0 0 Z " fill="#0B0B0B" transform="translate(228,40)"/>
<path d="M0 0 C0.33 0 0.66 0 1 0 C1 2.31 1 4.62 1 7 C0.01 7 -0.98 7 -2 7 C-1.125 1.125 -1.125 1.125 0 0 Z " fill="#E2E2E2" transform="translate(338,76)"/>
<path d="M0 0 C2.86724686 0.57344937 3.8614515 0.8614515 6 3 C6 3.99 6 4.98 6 6 C4 6 4 6 1.875 4.125 C0 2 0 2 0 0 Z " fill="#060606" transform="translate(374,49)"/>
</svg>
